<svg width="80" height="43" viewBox="0 0 80 43" fill="none" xmlns="http://www.w3.org/2000/svg">
<path d="M63.0224 0.55422C62.7092 0.762894 62.332 0.979596 61.9046 1.20215C60.9417 1.70359 59.7609 2.21601 58.559 2.71796C58.1948 2.87007 57.8281 3.02147 57.4655 3.17111C56.6406 3.51162 55.8377 3.84305 55.1371 4.15314C54.6312 4.37703 54.1689 4.59395 53.7813 4.80002C53.4004 5.00249 53.0636 5.20888 52.8275 5.41639L52.6419 5.57946L52.6587 5.82594C52.6866 6.23596 52.9088 6.74175 53.1658 7.22398C53.4351 7.72922 53.7893 8.29155 54.1563 8.84007C54.5244 9.39009 54.9113 9.93519 55.2484 10.4062C55.3096 10.4916 55.3689 10.5744 55.4261 10.654C55.6873 11.0183 55.903 11.3191 56.044 11.5298C56.4327 12.1106 56.7412 12.6027 57.0073 13.0272C57.123 13.2117 57.2307 13.3835 57.3335 13.5442C57.6597 14.0544 57.9525 14.4808 58.2836 14.7691C58.6487 15.0871 59.0515 15.232 59.5508 15.2193C60.0087 15.2076 60.5441 15.0625 61.1961 14.8479L61.1961 14.8479C66.1935 13.2023 70.6925 14.5081 74.102 17.0749C81.1105 22.3511 81.4326 33.9409 74.2563 39.402C65.9958 45.6882 56.1206 41.6663 52.7669 33.9166C51.2284 30.3615 51.5067 26.1695 52.5009 23.2555C53.0012 21.7894 53.6573 20.7226 54.283 20.2128C54.59 19.9626 54.8471 19.88 55.0491 19.8906C55.2407 19.9007 55.4786 19.9998 55.7461 20.3215C55.8928 20.498 55.9539 20.6521 55.9737 20.7974C55.9943 20.9495 55.9746 21.1295 55.9017 21.3619C55.8281 21.5971 55.7084 21.8608 55.55 22.177C55.4896 22.2977 55.4189 22.4349 55.3437 22.5806C55.2367 22.7881 55.1207 23.013 55.0125 23.2329C54.2265 24.8301 53.3855 27.0617 54.0299 30.4913C55.9993 40.9738 69.0892 43.6382 75.1818 35.1864L74.7762 34.8941L75.1818 35.1864C78.3185 30.8349 77.8408 25.4937 75.2706 21.625C72.6968 17.751 67.9873 15.2984 62.6353 16.7651C61.8091 16.9915 61.1889 17.3969 61.0396 18.0914C60.9034 18.725 61.221 19.3837 61.6242 19.9651C61.6252 19.9664 61.6261 19.9678 61.6271 19.9692L66.6951 27.5819C66.9086 28.1422 66.8019 28.5865 66.5854 28.8496C66.3667 29.1154 65.9622 29.2869 65.398 29.1432C65.3124 29.1214 65.1906 29.0556 65.0348 28.915C64.8825 28.7777 64.7251 28.5939 64.5659 28.3802C64.352 28.093 64.1694 27.8029 63.9979 27.5303C63.9022 27.3783 63.81 27.2318 63.7177 27.0942L63.7177 27.0942C63.176 26.2873 62.6472 25.4863 62.1193 24.6867C61.5187 23.7769 60.9192 22.8688 60.3031 21.9557C60.3031 21.9556 60.303 21.9554 60.3029 21.9553L51.7012 9.07575L51.6993 9.073C51.5292 8.8219 51.3855 8.59218 51.2514 8.37794C51.2262 8.33757 51.2013 8.29775 51.1766 8.25844C51.0251 8.01714 50.8759 7.78444 50.719 7.58902C50.5601 7.39109 50.3738 7.20613 50.1354 7.07677C49.8897 6.94346 49.6204 6.88627 49.3227 6.89658C48.7655 6.91588 48.0788 7.17601 47.1663 7.62277C46.2351 8.07868 44.99 8.77087 43.2902 9.72897L43.0183 9.88224L43.0366 10.1939C43.065 10.6784 43.1543 11.0219 43.338 11.3235C43.4622 11.5273 43.6357 11.7108 43.7936 11.8777C43.837 11.9235 43.8792 11.9681 43.9188 12.0115L46.8985 15.5652L46.9046 15.5724L46.9109 15.5794C46.9384 15.6098 46.9718 15.6466 47.0104 15.689C47.3842 16.1002 48.2471 17.0494 49.0072 18.0174C49.428 18.5533 49.8037 19.0781 50.0464 19.5102C50.1686 19.7278 50.2454 19.9016 50.2818 20.0286C50.2861 20.0436 50.2895 20.0569 50.2923 20.0688C49.9816 20.3039 49.5051 20.554 48.8679 20.811C48.136 21.1061 47.2337 21.3942 46.2147 21.6747C44.1768 22.2358 41.7119 22.7559 39.2879 23.2396C38.5862 23.3796 37.8873 23.5166 37.2038 23.6507C35.5346 23.978 33.9567 24.2874 32.6513 24.5783C31.7312 24.7834 30.9315 24.9825 30.3214 25.1761C30.0169 25.2727 29.7479 25.3716 29.53 25.4739C29.3283 25.5687 29.108 25.6941 28.9632 25.8691C28.8322 26.0273 28.7579 26.2434 28.7089 26.4193C28.6544 26.6147 28.6087 26.848 28.5689 27.0993C28.489 27.6026 28.425 28.2262 28.3655 28.8598C28.3494 29.0313 28.3336 29.2035 28.3178 29.375C28.2748 29.8438 28.2323 30.307 28.1853 30.7331C28.1204 31.3215 28.0505 31.8016 27.969 32.1051C24.4183 45.3186 5.94857 46.1359 1.36848 33.1606L0.898176 33.3267L1.36848 33.1606C-1.50143 25.0304 3.23838 18.1025 8.49852 15.5263L8.49853 15.5263C12.7657 13.4364 16.8627 13.9917 19.9257 15.299C21.459 15.9534 22.7227 16.7926 23.6044 17.5695C24.0457 17.9584 24.383 18.3245 24.6097 18.6358C24.849 18.9645 24.9217 19.1737 24.9281 19.2581C24.9468 19.5095 24.8417 19.7393 24.6324 19.9288C24.4172 20.1236 24.1125 20.2528 23.8111 20.2762C23.4916 20.3009 23.2978 20.2565 23.1403 20.1816C22.9658 20.0987 22.7979 19.9617 22.5419 19.7248C22.4968 19.6831 22.4502 19.6395 22.4018 19.5941C21.9006 19.1251 21.1972 18.4667 19.8716 17.7511C14.4427 14.8207 8.06612 16.9076 4.89345 21.4896L5.30453 21.7742L4.89345 21.4896C-0.161451 28.7901 4.17109 37.6796 11.1474 39.7622C15.2683 40.9923 19.771 39.6105 22.152 37.4046L21.8122 37.0378L22.152 37.4046C23.253 36.3845 24.4638 34.9626 25.2045 33.2546M63.0224 0.55422L38.3395 6.22018L38.3432 6.21934C37.9122 6.32478 37.4216 6.43338 36.8962 6.54964C35.9904 6.75012 34.9816 6.9734 33.998 7.24261C33.2306 7.45266 32.5075 7.68375 31.9031 7.94086C31.4171 8.14759 31.0374 8.35909 30.7749 8.56946M63.0224 0.55422C62.894 0.581377 62.7563 0.617179 62.5982 0.658302C62.4857 0.687556 62.3628 0.719503 62.2256 0.752944L62.2188 0.754602L62.2188 0.754554L38.3469 6.21845L63.0224 0.55422ZM25.2045 33.2546C25.2045 33.2546 25.2045 33.2546 25.2045 33.2546L24.7458 33.0556L25.2045 33.2546ZM25.2045 33.2546C25.5027 32.5672 25.9004 31.5174 26.135 30.4208C26.3652 29.345 26.4606 28.1273 26.0525 27.1643L26.016 27.0782L25.9508 27.0111C25.5766 26.6258 25.0188 26.4977 24.4964 26.4653C23.956 26.4317 23.3419 26.4944 22.7421 26.5928C22.1383 26.6919 21.525 26.8315 20.9817 26.9622C20.8178 27.0016 20.6619 27.0398 20.5148 27.0758C20.1649 27.1616 19.8647 27.2351 19.6256 27.2839C19.3021 27.3499 18.8323 27.4581 18.3036 27.5799C17.7536 27.7066 17.1398 27.8479 16.5604 27.9718C16.0231 28.0867 15.4981 28.1908 15.0365 28.2655M15.0365 28.2655C15.1875 28.1636 15.3568 28.0613 15.5431 27.9589C16.084 27.6615 16.6857 27.4053 17.2391 27.1697C17.3692 27.1143 17.4966 27.0601 17.6199 27.0067L17.62 27.0067C21.6215 25.2743 29.5965 21.0166 33.3804 18.7354L33.3805 18.7354C33.5067 18.6592 33.6497 18.5793 33.8093 18.4906L33.8328 18.4775C33.9833 18.3938 34.1462 18.3031 34.3092 18.2073C34.6493 18.0074 35.0167 17.7696 35.3205 17.4847C35.6239 17.2003 35.8987 16.8366 35.9929 16.3789C36.0901 15.9067 35.9787 15.4164 35.6643 14.9221L35.6643 14.9221C35.3963 14.5009 34.9467 13.9664 34.4486 13.3987C34.2494 13.1716 34.042 12.9388 33.8304 12.7012C33.4982 12.3283 33.1554 11.9434 32.8167 11.55C32.266 10.9103 31.7524 10.2776 31.3673 9.70297C31.0587 9.24257 30.8622 8.86152 30.7749 8.56946M15.0365 28.2655C14.74 28.4657 14.5142 28.6641 14.369 28.8585L35.2424 15.1905C36.1494 16.6165 34.6938 17.4263 33.5885 18.0412C33.422 18.1338 33.2636 18.222 33.1223 18.3072C29.3512 20.5806 21.3966 24.8268 17.4213 26.5478C17.3037 26.5987 17.1804 26.6512 17.0529 26.7055C16.0434 27.1351 14.7797 27.673 14.1228 28.376C14.3303 28.3643 14.5968 28.3337 14.9141 28.2849C14.9544 28.2786 14.9952 28.2722 15.0365 28.2655ZM30.7749 8.56946C30.7054 8.62519 30.6441 8.68083 30.5912 8.7363L30.2293 8.39126L30.7267 8.34002C30.7338 8.409 30.7499 8.48556 30.7749 8.56946ZM64.1491 0.0955709C64.1486 0.0949974 64.1482 0.0944329 64.1477 0.0938769C64.1397 0.0835854 64.134 0.0762034 64.1124 0.068843L64.1491 0.0955709Z" fill="#CFCFCF" stroke="#CFCFCF"/>
</svg>
