<svg width="80" height="43" viewBox="0 0 80 43" fill="none" xmlns="http://www.w3.org/2000/svg">
<path fill-rule="evenodd" clip-rule="evenodd" d="M30.2293 8.39126C30.4109 10.1537 34.266 13.6556 35.2424 15.1905C36.2859 16.8312 34.2019 17.6562 33.1223 18.3072C29.3512 20.5806 21.3966 24.8268 17.4213 26.5478C16.1627 27.0926 14.2422 27.8215 13.7818 28.8754C14.8946 28.9632 18.3763 28.0492 19.7255 27.7738C21.1295 27.4873 24.6262 26.3649 25.5921 27.3595C26.283 28.9897 25.3273 31.7152 24.7458 33.0556C24.0417 34.6791 22.8823 36.0463 21.8122 37.0378C19.5564 39.1277 15.236 40.4608 11.2904 39.2831C4.60312 37.2868 0.464473 28.7644 5.30453 21.7742C8.34815 17.3786 14.4533 15.3946 19.6341 18.1911C22.4189 19.6943 22.2926 20.8952 23.8496 20.7747C24.6642 20.7115 25.4915 20.0887 25.4267 19.2209C25.2903 17.3976 17.1331 10.7406 8.2786 15.0773C2.84255 17.7396 -2.07533 24.9067 0.896996 33.3271C5.64304 46.7725 24.7756 45.9155 28.4518 32.2348C28.8223 30.8561 28.8798 26.7538 29.3484 26.1879C30.4757 24.8261 47.8478 22.9492 50.7671 20.3253C51.1896 19.4812 47.8619 15.8853 47.2817 15.244L44.2953 11.6824C43.8429 11.1849 43.5869 11.0352 43.5357 10.1645C50.3482 6.32472 49.6182 6.89269 51.2854 9.35345L59.8884 22.2349C61.055 23.9641 62.1287 25.6242 63.3025 27.3729C63.7561 28.0487 64.4914 29.4282 65.2746 29.6277C66.7249 29.9971 67.7273 28.7903 67.1406 27.3489L62.0377 19.6838C61.2459 18.5444 61.2281 17.6691 62.7674 17.2473C72.9932 14.4449 80.7698 26.5791 74.7762 34.8941C68.9332 42.9995 56.4073 40.4373 54.5213 30.399C53.2852 23.8206 57.7272 21.9222 56.1306 20.0018C53.4841 16.8189 49.1104 26.7263 52.308 34.1151C55.7736 42.1236 66.0072 46.3079 74.559 39.7999C82.0094 34.1303 81.6658 22.1433 74.4028 16.6754C70.8853 14.0274 66.218 12.6678 61.0397 14.3729C58.4285 15.2326 58.7036 14.6047 56.4595 11.2517C55.749 10.1902 53.2371 6.96065 53.1575 5.79198C54.687 4.44797 62.8545 2.04762 64.232 0.15595C64.0504 0.0639441 64.2896 0.0800694 63.7732 0.0170543C63.1823 -0.0550961 62.7289 0.115679 62.1072 0.267158L38.228 5.73279C35.966 6.2865 31.5243 7.03308 30.2293 8.39126Z" fill="#F3363B"/>
</svg>
